PathFileType	4	(X/Y/Z)	D:\TRACE\spotREDO_2-26-24\spot_justBody_Motion_3_3-platform.trc
DataRate	CameraRate	NumFrames	NumMarkers	Units	OrigDataRate	OrigDataStartFrame	OrigNumFrames
100.00	100.00	      72	5	mm	100.00	1	      7000
Frame#	Time	Left_Front			Right_Front			Left_Aft			Right_Aft			Post			
		X1	Y1	Z1	X2	Y2	Z2	X3	Y3	Z3	X4	Y4	Z4	X5	Y5	Z5	

1	0.000	-736.23547	99.32814	-539.20996	678.64655	94.04534	-455.26721	-806.76361	-108.21933	662.05200	763.74683	-101.48485	665.32477	-27.03485	789.10858	-828.29382	
2	0.010	-736.21002	99.31932	-539.17737	678.70184	94.00678	-455.25317	-806.78723	-108.24980	662.07074	763.77734	-101.46903	665.32916	-27.10806	789.02161	-828.19330	
3	0.020	-736.23279	99.31772	-539.17358	678.69391	93.95963	-455.26083	-806.73138	-108.29459	662.00879	763.75348	-101.53312	665.29504	-27.00063	789.00616	-828.20892	
4	0.030	-736.21997	99.33336	-539.19922	678.72864	93.97194	-455.30441	-806.74365	-108.27444	662.02917	763.76917	-101.45669	665.35486	-26.95976	788.98444	-828.23315	
5	0.040	-736.23944	99.36053	-539.21857	678.72479	94.02068	-455.23242	-806.76910	-108.23465	662.01251	763.75275	-101.46972	665.32697	-26.97663	789.05042	-828.28320	
6	0.050	-736.26984	99.36409	-539.21423	678.71808	94.03398	-455.23038	-806.76978	-108.23405	662.03192	763.74316	-101.48855	665.32306	-27.00011	789.08032	-828.32416	
7	0.060	-736.26416	99.38101	-539.21027	678.69653	94.04859	-455.20782	-806.75861	-108.21921	662.05310	763.77826	-101.51281	665.27692	-27.06434	789.08807	-828.43787	
8	0.070	-736.26062	99.38136	-539.20184	678.71802	94.01906	-455.28629	-806.73651	-108.29598	662.07947	763.75861	-101.49841	665.28229	-27.09016	789.11957	-828.53357	
9	0.080	-736.29590	99.39289	-539.17383	678.61047	94.08513	-455.28073	-806.74603	-108.22224	662.07288	763.78058	-101.49016	665.31470	-27.08993	789.15167	-828.57648	
10	0.090	-736.38910	99.40689	-539.15668	678.70996	94.04147	-455.22845	-806.76392	-108.26938	662.02936	763.76221	-101.46622	665.31421	-27.05582	789.11371	-828.60370	
11	0.100	-736.45123	99.45909	-539.19269	678.67950	94.00603	-455.28278	-806.73792	-108.25429	662.02985	763.74011	-101.50594	665.29907	-27.02355	789.10455	-828.54553	
12	0.110	-736.48749	99.42793	-539.15656	678.74237	93.99292	-455.22147	-806.77411	-108.27840	662.01733	763.75098	-101.51457	665.30933	-27.08179	789.09229	-828.40881	
13	0.120	-736.42120	99.43339	-539.15027	678.69763	94.01774	-455.25070	-806.80481	-108.24281	662.02661	763.77777	-101.47089	665.34521	-27.00874	789.03802	-828.32794	
14	0.130	-736.39496	99.36015	-539.14557	678.72992	93.96545	-455.25882	-806.73279	-108.25723	662.05499	763.80298	-101.44888	665.36499	-26.94262	788.98438	-828.29871	
15	0.140	-736.43835	99.39990	-539.15680	678.68488	94.01806	-455.23169	-806.77344	-108.25581	662.03021	763.73743	-101.51192	665.29065	-27.04307	789.05695	-828.24268	
16	0.150	-736.48114	99.41843	-539.14130	678.65619	94.01636	-455.35455	-806.70227	-108.22906	662.03290	763.75763	-101.49609	665.31000	-26.98635	789.09326	-828.23279	
17	0.160	-736.36340	99.41419	-539.14203	678.70953	94.04299	-455.24167	-806.74597	-108.26279	662.03180	763.80560	-101.47851	665.31335	-26.96048	789.09485	-828.28998	
18	0.170	-736.27954	99.37959	-539.17114	678.72815	93.99469	-455.18506	-806.72461	-108.23720	662.02930	763.77570	-101.47818	665.31433	-27.01753	789.09473	-828.28894	
19	0.180	-736.24445	99.38821	-539.18610	678.71655	94.02023	-455.20834	-806.73706	-108.26153	662.02728	763.76263	-101.53175	665.30719	-27.02942	789.10760	-828.34119	
20	0.190	-736.23981	99.36870	-539.18964	678.68854	94.00972	-455.23224	-806.73364	-108.22440	662.06573	763.75049	-101.52139	665.27441	-27.06125	789.09851	-828.36829	
21	0.200	-736.24731	99.42320	-539.19098	678.68048	93.99698	-455.25604	-806.76807	-108.23087	662.05872	763.74353	-101.49073	665.31934	-27.06742	789.11737	-828.44531	
22	0.210	-736.32483	99.39008	-539.23438	678.69281	94.01524	-455.23920	-806.79462	-108.22829	662.00775	763.73669	-101.48222	665.32153	-26.96903	789.11621	-828.53674	
23	0.220	-736.25140	99.38411	-539.21039	678.71515	94.02352	-455.25662	-806.74597	-108.19511	662.04437	763.76904	-101.44411	665.31653	-27.05149	789.08533	-828.53009	
24	0.230	-736.23096	99.36679	-539.18530	678.69403	94.04972	-455.20731	-806.75269	-108.22969	662.02759	763.77594	-101.50085	665.29633	-27.06712	789.10608	-828.49744	
25	0.240	-736.20306	99.36939	-539.18097	678.71234	94.03191	-455.23798	-806.75775	-108.20351	662.08093	763.79492	-101.44456	665.30316	-27.02217	789.07458	-828.45514	
26	0.250	-736.26141	99.40574	-539.22650	678.68408	94.05634	-455.21188	-806.72845	-108.21702	662.04797	763.73401	-101.47946	665.29431	-27.04972	789.12616	-828.37256	
27	0.260	-736.28583	99.45486	-539.20227	678.69202	94.05756	-455.27768	-806.73877	-108.18397	662.02460	763.74786	-101.45603	665.31799	-27.01302	789.13385	-828.31329	
28	0.270	-736.27100	99.47822	-539.19934	678.70093	94.06703	-455.25018	-806.75684	-108.19838	662.02722	763.77960	-101.48051	665.30774	-27.01090	789.12482	-828.30115	
29	0.280	-736.28424	99.39519	-539.19720	678.68085	94.03065	-455.21548	-806.77893	-108.26615	662.02130	763.76459	-101.48021	665.32507	-27.00446	789.09094	-828.28247	
30	0.290	-736.24274	99.41269	-539.19708	678.66534	94.01543	-455.26913	-806.75354	-108.20771	662.10461	763.78589	-101.52143	665.29114	-26.98444	789.06299	-828.27362	
31	0.300	-736.29028	99.40985	-539.19293	678.70581	93.99731	-455.26498	-806.75708	-108.25851	662.05750	763.74493	-101.44607	665.31354	-26.98797	789.10370	-828.27301	
32	0.310	-736.23969	99.36823	-539.16998	678.69873	94.05695	-455.23315	-806.82935	-108.21404	662.02759	763.71686	-101.45990	665.29285	-26.98221	789.10022	-828.30432	
33	0.320	-736.27917	99.40807	-539.21027	678.70386	94.08405	-455.23340	-806.74988	-108.20464	662.08466	763.76715	-101.47914	665.31781	-26.95751	789.08783	-828.32190	
34	0.330	-736.24390	99.39775	-539.20123	678.68463	94.02118	-455.26608	-806.75940	-108.20701	662.09393	763.77386	-101.45689	665.32623	-26.97010	789.13171	-828.38660	
35	0.340	-736.22009	99.40130	-539.18555	678.68427	94.02976	-455.24463	-806.75690	-108.20322	662.07983	763.77478	-101.46291	665.30157	-26.97281	789.06482	-828.44220	
36	0.350	-736.27203	99.39622	-539.19611	678.67517	94.02197	-455.24728	-806.77429	-108.22745	662.06940	763.77173	-101.48863	665.30457	-26.99868	789.10388	-828.49158	
37	0.360	-736.23181	99.39874	-539.18683	678.73444	94.02280	-455.18857	-806.78210	-108.24829	662.05487	763.79987	-101.42916	665.32672	-27.00871	789.10236	-828.51453	
38	0.370	-736.26501	99.40133	-539.20410	678.71399	94.07079	-455.18411	-806.77209	-108.20293	662.08429	763.76971	-101.46902	665.33453	-26.98870	789.14813	-828.48621	
39	0.380	-736.27362	99.47053	-539.17975	678.66248	94.06429	-455.25934	-806.79071	-108.19930	662.05872	763.73090	-101.46839	665.29028	-26.96683	789.14362	-828.43304	
40	0.390	-736.26392	99.42860	-539.20776	678.68756	94.04670	-455.23166	-806.77661	-108.20067	662.06506	763.73944	-101.47906	665.30530	-27.00670	789.14496	-828.35535	
41	0.400	-736.28827	99.43370	-539.18396	678.72455	94.02576	-455.23877	-806.75134	-108.19191	662.06958	763.74463	-101.47159	665.32056	-27.05476	789.13666	-828.29590	
42	0.410	-736.27515	99.38949	-539.20349	678.68304	94.02502	-455.22025	-806.81061	-108.21745	662.09479	763.72693	-101.50476	665.27551	-27.03458	789.12140	-828.26831	
43	0.420	-736.27100	99.42754	-539.19617	678.68854	94.05012	-455.23361	-806.78467	-108.17660	662.08380	763.76593	-101.47655	665.31281	-27.02722	789.09729	-828.24780	
44	0.430	-736.25476	99.46597	-539.21216	678.70947	94.06454	-455.22818	-806.74994	-108.22006	662.02399	763.71350	-101.44820	665.31604	-26.93877	789.09491	-828.26941	
45	0.440	-736.25171	99.42332	-539.19720	678.66876	94.06086	-455.27521	-806.78754	-108.15306	662.06323	763.76355	-101.44867	665.31744	-26.92476	789.06970	-828.27802	
46	0.450	-736.28497	99.41986	-539.18402	678.69574	94.06213	-455.21970	-806.75012	-108.22944	662.03961	763.75494	-101.45506	665.31683	-27.03210	789.15747	-828.30200	
47	0.460	-736.27606	99.42087	-539.19000	678.67419	94.05634	-455.22165	-806.78412	-108.21156	662.03802	763.72864	-101.48572	665.30115	-27.06472	789.11261	-828.30908	
48	0.470	-736.25739	99.41418	-539.17157	678.66028	94.07510	-455.23706	-806.73993	-108.22798	662.04755	763.77399	-101.45978	665.31140	-27.00062	789.10254	-828.41962	
49	0.480	-736.25482	99.41068	-539.19122	678.62787	94.08601	-455.25949	-806.76074	-108.18787	662.05304	763.73615	-101.43607	665.29639	-27.05194	789.16473	-828.43469	
50	0.490	-736.29449	99.45531	-539.18451	678.70270	94.07018	-455.24939	-806.75366	-108.20094	662.04749	763.77148	-101.40527	665.33813	-27.02652	789.16437	-828.49536	
51	0.500	-736.23389	99.39637	-539.17719	678.68811	94.02802	-455.23074	-806.77747	-108.15724	662.09314	763.75208	-101.46007	665.31140	-27.00977	789.12262	-828.44702	
52	0.510	-736.26654	99.36859	-539.20850	678.70160	94.01882	-455.23004	-806.76959	-108.20992	662.03009	763.72394	-101.46664	665.30328	-27.06083	789.10779	-828.43359	
53	0.520	-736.25470	99.37968	-539.19513	678.67908	94.04749	-455.22787	-806.77142	-108.23051	662.05426	763.76538	-101.51582	665.27075	-27.08557	789.10657	-828.36810	
54	0.530	-736.25891	99.40917	-539.19202	678.73059	94.04333	-455.20300	-806.73560	-108.23023	662.01385	763.82477	-101.43640	665.32489	-27.08563	789.10168	-828.32471	
55	0.540	-736.29370	99.37850	-539.18689	678.70673	94.04663	-455.17285	-806.74078	-108.19611	662.05579	763.79773	-101.43008	665.34039	-27.09035	789.12433	-828.29059	
56	0.550	-736.41779	99.43470	-539.15887	678.69952	94.07139	-455.16501	-806.74310	-108.21611	662.06104	763.73352	-101.42870	665.31451	-27.16308	789.16248	-828.23914	
57	0.560	-736.46869	99.38229	-539.12476	678.66302	94.04081	-455.27832	-806.77454	-108.18719	662.06555	763.73560	-101.46553	665.29749	-27.23502	789.14081	-828.22894	
58	0.570	-736.49908	99.39592	-539.11688	678.68066	94.05957	-455.23895	-806.81018	-108.22775	662.03430	763.76788	-101.46310	665.32397	-27.20954	789.15625	-828.23010	
59	0.580	-736.45459	99.46175	-539.14746	678.66437	94.05499	-455.22476	-806.73608	-108.20993	662.10114	763.75763	-101.44854	665.31366	-27.23320	789.18146	-828.23541	
60	0.590	-736.46906	99.44639	-539.11896	678.71661	94.02796	-455.22086	-806.73755	-108.22593	662.06085	763.74640	-101.47765	665.30969	-27.13908	789.18573	-828.27490	
61	0.600	-736.43518	99.43387	-539.12885	678.72766	94.04791	-455.23080	-806.78412	-108.21607	662.06134	763.74292	-101.44597	665.35168	-27.10240	789.15973	-828.30609	
62	0.610	-736.43408	99.44248	-539.15698	678.71655	94.03899	-455.19635	-806.83264	-108.13850	662.07123	763.75977	-101.43241	665.33484	-27.11457	789.18286	-828.34204	
63	0.620	-736.49420	99.42489	-539.13446	678.67212	94.03823	-455.25745	-806.79669	-108.21172	662.05212	763.74152	-101.44172	665.29510	-27.19521	789.18176	-828.37762	
64	0.630	-736.46210	99.40274	-539.14581	678.62268	94.06617	-455.23962	-806.81580	-108.20166	662.05231	763.77002	-101.43515	665.32294	-27.31386	789.25610	-828.36407	
65	0.640	-736.38464	99.37850	-539.18256	678.72577	94.06892	-455.21899	-806.78101	-108.21109	662.04114	763.76257	-101.43859	665.33044	-27.56774	789.25122	-828.25684	
66	0.650	-736.35168	99.42962	-539.18512	678.66034	94.06052	-455.19937	-806.79816	-108.20949	662.07440	763.73523	-101.43785	665.31891	-27.52393	789.23828	-828.24384	
67	0.660	-736.27905	99.40337	-539.17676	678.76001	93.99792	-455.21600	-806.77936	-108.16774	662.04236	763.74652	-101.47162	665.32147	-28.23030	789.41974	-828.03333	
68	0.670	-736.23248	99.37959	-539.17566	678.66370	94.02790	-455.24738	-806.77667	-108.17052	662.07635	763.75873	-101.47263	665.30719	-28.37521	789.49072	-827.95776	
69	0.680	-736.25922	99.39664	-539.18073	678.74432	93.99532	-455.22336	-806.74957	-108.23209	662.05518	763.75171	-101.48483	665.30499	-27.48838	789.19617	-828.18915	
70	0.690	-736.23352	99.37949	-539.21869	678.71643	94.04541	-455.22379	-806.73901	-108.15704	662.06152	763.76965	-101.48365	665.30652	-27.52482	789.26434	-828.15845	
71	0.700	-736.25195	99.38227	-539.20032	678.68945	94.06567	-455.24701	-806.74817	-108.20670	662.03363	763.74933	-101.46709	665.31555	-27.46827	789.24249	-828.14313	
72	0.710	-736.23724	99.41653	-539.17029	678.71680	94.03426	-455.24164	-806.82568	-108.20369	662.10986	763.78046	-101.42934	665.31213	-26.52893	788.88007	-828.39185	
